<?xml version="1.0" encoding="UTF-8" standalone="no"?>
<svg
   xmlns:dc="http://purl.org/dc/elements/1.1/"
   xmlns:cc="http://creativecommons.org/ns#"
   xmlns:rdf="http://www.w3.org/1999/02/22-rdf-syntax-ns#"
   xmlns:svg="http://www.w3.org/2000/svg"
   xmlns="http://www.w3.org/2000/svg"
   xmlns:sodipodi="http://sodipodi.sourceforge.net/DTD/sodipodi-0.dtd"
   xmlns:inkscape="http://www.inkscape.org/namespaces/inkscape"
   width="200pt"
   height="200pt"
   viewBox="0 0 70.555556 70.555556"
   version="1.1"
   id="svg8"
   inkscape:version="1.0.1 (3bc2e813f5, 2020-09-07)"
   sodipodi:docname="деканат.svg">
  <defs
     id="defs2" />
  <sodipodi:namedview
     id="base"
     pagecolor="#ffffff"
     bordercolor="#666666"
     borderopacity="1.0"
     inkscape:pageopacity="0.0"
     inkscape:pageshadow="2"
     inkscape:zoom="1.4"
     inkscape:cx="96.678294"
     inkscape:cy="145.18425"
     inkscape:document-units="mm"
     inkscape:current-layer="layer1"
     inkscape:document-rotation="0"
     showgrid="false"
     units="pt"
     inkscape:window-width="1366"
     inkscape:window-height="731"
     inkscape:window-x="0"
     inkscape:window-y="0"
     inkscape:window-maximized="0" />
  <metadata
     id="metadata5">
    <rdf:RDF>
      <cc:Work
         rdf:about="">
        <dc:format>image/svg+xml</dc:format>
        <dc:type
           rdf:resource="http://purl.org/dc/dcmitype/StillImage" />
        <dc:title></dc:title>
      </cc:Work>
    </rdf:RDF>
  </metadata>
  <g
     inkscape:label="Слой 1"
     inkscape:groupmode="layer"
     id="layer1">
    <path
       style="fill:none;stroke:#000000;stroke-width:0.264583px;stroke-linecap:butt;stroke-linejoin:miter;stroke-opacity:1"
       d="m 44.775159,10.733204 c -0.184888,0.433443 -1.117134,2.794516 -1.522193,3.063654 -0.105934,0.07038 -0.291893,-0.09021 -0.381553,0 -0.184637,0.185765 -7.93e-4,0.577005 -0.184454,0.76379 -0.04416,0.04492 -0.143431,-0.04351 -0.188989,0 -0.09515,0.09087 -0.325538,0.659533 -0.403029,0.763058 -0.487204,0.650886 -1.160182,1.359271 -1.521744,2.093991 -0.09161,0.186163 -0.08716,0.413197 -0.192553,0.59192 -0.780923,1.324265 -1.955604,2.319035 -2.952477,3.491527 -0.789088,0.9281 -1.416696,1.965146 -2.153211,2.91345 -1.59521,2.053915 -0.04532,-0.14215 -1.628812,1.222759 -0.251476,0.21676 -0.376841,0.548058 -0.59136,0.801446 -0.482475,0.569891 -1.09906,0.8914 -1.600626,1.402934 -0.229788,0.234355 -0.352599,0.559123 -0.580448,0.795362 -1.373502,1.424061 -3.14122,2.501016 -4.437091,4.022825 -0.639987,0.75157 -1.137686,1.630037 -1.764053,2.397596 -0.424391,0.520057 -0.950991,0.991489 -1.353224,1.528919 -0.197496,0.263877 -1.010401,1.440997 -1.147471,1.714031 -0.05699,0.113515 0.07019,0.275191 0,0.381051 -0.07784,0.117398 -0.299839,0.07178 -0.377976,0.188986 -0.06989,0.104833 0.05635,0.265287 0,0.377979 -0.240946,0.481891 -0.437614,0.43426 -0.753594,0.753599 -0.462193,0.467103 -0.741885,1.185617 -1.134274,1.711153 -0.06791,0.09095 -0.695209,0.680178 -0.763479,0.765866 -0.544678,0.683633 -1.518897,1.82595 -1.946881,2.529895 -0.104617,0.172075 -0.06559,0.416211 -0.192327,0.572709 -0.144798,0.178803 -0.413704,0.216451 -0.577554,0.377976 -0.900404,0.887624 -1.779598,2.057114 -2.858946,2.860995 -0.01839,0.01368 -0.752022,0.367401 -0.766536,0.381789 -0.428107,0.424344 -0.868854,1.309915 -1.477571,1.309915 -0.234506,1.617985 -1.448169,2.830843 -1.9389619,4.336167 -0.240579,0.737887 -0.2069695,1.546342 -0.4420584,2.285996 -0.1180996,0.371573 -0.4415836,0.647342 -0.6030571,1.002223 -0.3471942,0.763052 -0.4264378,1.746151 -0.8163377,2.4857 -0.086249,0.163594 -0.316477,0.217971 -0.4028166,0.381517 -0.085123,0.161242 -0.3379297,1.113185 -0.3812348,1.329711 -0.061773,0.308863 0.076394,0.639365 0,0.94494 -0.09561,0.382439 -0.4646086,0.448886 -0.5669643,0.755953 -0.060986,0.182958 0.1314414,0.803145 0,0.940199 -0.041818,0.0436 -0.1385276,-0.04272 -0.1812482,0 -0.3396541,0.339655 -0.082134,0.409365 -0.188988,0.732722 -0.1283749,0.38848 -0.5369155,0.32945 -0.3723472,0.750323 0.03766,0.09631 4.0259568,-1.805904 4.5050141,-1.970406 0.3327981,-0.114279 1.0386591,-0.233005 1.3259791,-0.377977 0.159805,-0.08063 0.218025,-0.301085 0.377976,-0.381425 0.113614,-0.05707 0.266757,0.05493 0.38142,0 0.05493,-0.02631 -0.05487,-0.156272 0,-0.182713 0.269642,-0.129944 0.658212,-0.09302 0.946105,-0.188988 0.169036,-0.05635 0.218608,-0.298292 0.377976,-0.377976 0.359259,-0.17963 0.928607,-0.06498 1.306324,-0.188988 0.08446,-0.02773 0.105983,-0.159075 0.190499,-0.186635 0.663186,-0.216259 2.236285,0.08462 2.797812,-0.192726 0.935278,-0.461947 2.021966,-0.677215 3.072487,-0.677215 1.31709,-1.045889 1.892758,-2.394646 2.61139,-3.814026 1.036717,-2.047634 -0.228775,1.03436 0.82278,-1.408834 0.198604,-0.461439 0.315201,-1.102566 0.573239,-1.533141 0.398244,-0.664527 0.924002,-1.295808 1.358761,-1.949926 0.322247,-0.484836 0.76434,-1.350857 1.147627,-1.733929 0.201988,-0.201875 0.564447,-0.18023 0.767147,-0.38139 0.09998,-0.09923 0.125992,-0.251984 0.188988,-0.377977 0.130437,-0.135767 0.246423,-0.287077 0.39131,-0.407303 0.994082,-0.824884 2.110366,-1.498806 3.103839,-2.325422 0.76809,-0.639087 1.469436,-1.369498 2.301914,-1.93684 0.57421,-0.39133 1.279704,-0.630482 1.848027,-1.024843 0.712995,-0.494751 1.407048,-1.27364 1.906226,-1.940069 0.3688,-0.492369 0.919463,-0.726801 1.33452,-1.143289 0.727714,-0.730224 0.139874,-0.401545 0.612735,-1.186361 0.214161,-0.355447 0.886895,-1.103754 1.164162,-1.382321 0.168709,-0.169501 0.448703,-0.207874 0.600404,-0.392753 0.375332,-0.293294 0.301821,-0.86831 0.584232,-1.219679 0.172276,-0.214342 0.418579,-0.360979 0.592802,-0.573741 0.216453,-0.264333 0.163682,-0.68804 0.381379,-0.951348 0.149872,-0.181272 0.443185,-0.200353 0.594026,-0.38082 0.186616,-0.223269 0.218802,-0.543815 0.380836,-0.785516 0.757731,-1.13028 0.05061,0.360895 0.786197,-0.766247 0.499229,-0.764967 0.963968,-1.593803 1.378135,-2.38733 0.01211,-0.0232 0.799372,-1.167798 0.808459,-1.189677 0.04832,-0.116357 -0.05545,-0.26484 0,-0.377977 0.3593,-0.733146 1.144883,-1.353484 1.5284,-2.11161 0.09517,-0.188127 0.09969,-0.416704 0.209105,-0.596921 1.004935,-1.655292 2.319658,-3.111621 3.420668,-4.751982 0.565423,-0.842407 0.98497,-2.307659 1.733398,-3.067821 0.05815,-0.05906 0.531844,-0.332293 0.55235,-0.375577 0.05325,-0.112406 -0.05097,-0.259687 0,-0.373143 0.04574,-0.101799 0.225082,0.07156 0.285501,0 0.08946,-0.105962 0.09554,-0.270002 0.193221,-0.368443 0.07332,-0.0739 0.250357,0.08366 0.312308,0 0.102385,-0.138269 -0.05396,-0.36108 0.09414,-0.438188 0.352642,-0.183609 0.694305,-0.170387 0.986178,-0.36782 -0.645014,-1.285768 -1.741988,-1.581625 -2.659714,-2.499352 -0.06102,-0.06102 -0.333395,-0.540359 -0.377976,-0.562419 -0.111358,-0.0551 -0.285499,0.08847 -0.372739,0 -0.08847,-0.08971 0.08909,-0.288886 0,-0.377976 -0.08909,-0.08909 -0.272861,0.06946 -0.377976,0 -0.11598,-0.07664 -0.08788,-0.275044 -0.186508,-0.373016 -0.216303,-0.214875 -0.869463,-0.491486 -1.133929,-0.755953 -0.320061,-0.320061 -0.246903,-0.435891 -0.566964,-0.755952 -0.580081,-0.58008 -0.157139,0.110418 -0.755953,-0.188988 -0.05635,-0.02817 0.04454,-0.144443 0,-0.188988 -0.211936,-0.211938 -0.685794,-0.251549 -0.92134,-0.367157 -0.271263,-0.133138 -0.207946,-0.238108 -0.330775,-0.346264 -0.01212,-0.01067 -0.322151,0.0091 -0.349831,0 -1.426439,-0.468016 -1.87755,-0.987844 -3.455851,-0.561248 z"
       id="path833" />
    <path
       style="fill:none;stroke:#000000;stroke-width:0.264583px;stroke-linecap:butt;stroke-linejoin:miter;stroke-opacity:1"
       d="m 44.775159,10.733204 c -0.04338,-0.197426 0.883253,-1.0499584 1.022445,-1.4712936 0.0377,-0.1141257 -0.0558,-0.2541201 0,-0.3605758 0.398553,-0.7604114 -0.02207,1.0671001 0.363175,-0.1846193 0.05188,-0.1685475 -0.134577,-0.4150858 0,-0.529049 0.105678,-0.089487 0.299583,-0.058223 0.377976,-0.1723691 0.07133,-0.1038569 -0.08909,-0.2888864 0,-0.3779763 0.08909,-0.08909 0.265081,0.055931 0.377979,0 0.128325,-0.125992 0.256651,-0.2519839 0.384976,-0.3779761 0,-0.062196 -0.04398,-0.1426091 0,-0.1865889 0.216284,-0.2162858 1.414897,-0.720053 1.740308,-0.9645701 0.699378,-0.5255201 0.08213,-0.2534576 0.775909,-0.780461 0.428892,-0.3257912 1.07769,-0.5363318 1.509159,-0.7595312 0.425704,-0.220218 -0.06346,-0.1604184 0.371655,-0.377976 0.364906,-0.1824538 1.173946,0.1041376 1.510578,0.1889879 0.702889,0.1771684 1.298567,0.8600694 1.889038,1.1440678 0.412146,-0.076346 0.06831,0.3066577 0.192206,0.3689183 0.111223,0.055892 0.262369,-0.056208 0.373433,0 0.108027,0.054672 -0.109553,0.3116729 0,0.3632261 0.111673,0.052551 0.260059,-0.055573 0.370258,0 0.05557,0.028025 -0.04401,0.1427083 0,0.1867186 0.03518,0.035183 0.52718,0.1538049 0.562361,0.1889879 0.863934,0.8639381 1.764298,2.1023532 2.754599,2.7422914 0.01521,0.00982 0.272002,0.5885011 0.307207,0.6549444 0.05842,0.110238 0.271383,0.07543 0.323059,0.188988 0.07057,0.155062 -0.128595,0.399347 0,0.511092 0.894165,0.776992 -0.162737,2.58308 -0.635574,3.419315 -0.280482,0.49605 -0.104979,-0.196001 -0.377976,0.349993 -0.05405,0.10811 0.08631,0.277997 0,0.362612 -0.43285,0.424329 -0.669914,0.549537 -0.926957,1.113298 -0.272261,0.597141 -1.500063,0.916349 -1.541526,0.970554 -0.09122,0.11925 -0.36853,1.582992 -0.234733,0.766305"
       id="path835" />
    <path
       style="fill:none;stroke:#000000;stroke-width:0.264583px;stroke-linecap:butt;stroke-linejoin:miter;stroke-opacity:1"
       d="m 11.322733,50.512379 11.96186,6.954223"
       id="path843" />
    <path
       style="fill:none;stroke:#000000;stroke-width:0.264583px;stroke-linecap:butt;stroke-linejoin:miter;stroke-opacity:1"
       d="m 6.8912136,61.998325 3.2064474,2.399911"
       id="path845" />
    <path
       style="fill:none;stroke:#000000;stroke-width:0.264583px;stroke-linecap:butt;stroke-linejoin:miter;stroke-opacity:1"
       d="m 42.509101,14.655171 10.768367,5.893726"
       id="path847" />
    <path
       style="fill:#ffff00;stroke-width:0.714286"
       d="m 22.749722,247.68425 c 0,-0.78571 0.321429,-1.42857 0.714286,-1.42857 0.392857,0 0.714286,-0.92493 0.714286,-2.0554 0,-1.13047 0.482142,-2.45554 1.071428,-2.9446 0.589286,-0.48906 1.071429,-1.81414 1.071429,-2.9446 0,-1.13047 0.174948,-2.0554 0.388773,-2.0554 0.213826,0 2.456012,1.56494 4.982637,3.47764 l 4.593863,3.47765 -6.441734,2.95093 c -3.542954,1.62301 -6.588712,2.95092 -6.768351,2.95092 -0.179639,0 -0.326617,-0.64285 -0.326617,-1.42857 z"
       id="path849"
       transform="scale(0.26458333)" />
    <path
       style="fill:#ff5555;stroke-width:0.714286"
       d="m 66.51066,203.60699 -21.514352,-12.49822 2.626707,-2.42428 c 13.810724,-12.74642 17.73721,-16.60999 18.438545,-18.1431 0.449291,-0.98214 2.623762,-3.875 4.832158,-6.42857 2.208396,-2.55357 5.101266,-6.25 6.428601,-8.21428 1.327334,-1.96429 3.252215,-4.35067 4.277512,-5.30308 1.025297,-0.95242 1.864177,-2.15777 1.864177,-2.67857 0,-0.52081 0.321429,-0.94692 0.714286,-0.94692 0.392857,0 0.714358,-0.5625 0.714446,-1.25 8.8e-5,-0.6875 1.754321,-3.5 3.898294,-6.25 2.143974,-2.75 6.001861,-7.77858 8.573083,-11.17462 2.681633,-3.54186 7.338443,-8.41481 10.921673,-11.42857 6.53909,-5.49986 18.74965,-17.529593 18.74965,-18.471986 0,-0.301273 1.13811,-1.08784 2.52914,-1.747927 1.68942,-0.801684 4.17163,-3.424059 7.4761,-7.89829 2.72083,-3.683973 7.19947,-9.169157 9.95254,-12.189299 2.75307,-3.020142 5.71094,-6.97575 6.57305,-8.79024 0.86211,-1.81449 2.79892,-4.867846 4.30403,-6.785236 1.50512,-1.91739 2.73657,-3.731542 2.73657,-4.03145 0,-0.419126 38.06247,19.984853 38.96589,20.888269 0.6552,0.655202 -4.15587,8.583652 -10.03109,16.530827 -3.73557,5.052959 -6.79195,9.594642 -6.79195,10.092632 0,0.49798 -1.44643,2.76814 -3.21428,5.04479 -1.76786,2.27665 -3.21429,4.70707 -3.21429,5.40093 0,0.69387 -0.27093,1.42902 -0.60208,1.63368 -0.33115,0.20465 -2.09361,2.93911 -3.9166,6.07656 -3.2143,5.53198 -4.37968,7.09662 -8.51703,11.43485 -1.08036,1.13281 -1.96429,2.36865 -1.96429,2.7463 0,0.37764 -0.96428,1.90002 -2.14286,3.38306 -1.17857,1.48304 -2.14285,3.11242 -2.14285,3.62084 0,0.50843 -1.64777,2.47315 -3.6617,4.36607 -2.01392,1.89291 -4.18357,4.56666 -4.82142,5.94166 -1.5556,3.35335 -13.11675,14.31277 -17.6521,16.73335 -1.99938,1.0671 -5.65481,3.70152 -8.1232,5.85428 -2.46839,2.15276 -6.93968,5.72704 -9.93621,7.94285 -2.99653,2.21581 -6.93221,5.49399 -8.74597,7.28484 -4.508056,4.45115 -11.195706,14.4655 -12.989529,19.45104 -0.813678,2.26144 -1.839614,4.24993 -2.279857,4.41886 -0.440243,0.16895 -10.4819,-5.31703 -22.314794,-12.19105 z"
       id="path851"
       transform="scale(0.26458333)" />
    <path
       style="fill:#000000;stroke-width:0.714286"
       d="m 211.57218,63.872477 c -0.3569,-0.637758 -1.75949,-1.978912 -3.11685,-2.980342 -1.35736,-1.001429 -3.91962,-3.1946 -5.69391,-4.873713 -1.77429,-1.679114 -4.50696,-4.000141 -6.07261,-5.157838 -1.56564,-1.157697 -3.60314,-2.988833 -4.52778,-4.06919 -0.92463,-1.080357 -1.97751,-1.964286 -2.33973,-1.964286 -0.36222,0 -2.02114,-0.622381 -3.6865,-1.383071 -6.08945,-2.78148 -8.80634,-3.753069 -11.78866,-4.215739 l -3.04644,-0.472618 1.80002,-1.936975 c 0.99001,-1.065336 1.87877,-2.644746 1.97501,-3.5098 0.2188,-1.966613 4.90202,-6.368422 8.95979,-8.421413 1.68879,-0.854424 3.23969,-1.994338 3.44644,-2.533143 0.20676,-0.538805 2.11891,-1.890354 4.24922,-3.003443 2.13031,-1.113089 3.87405,-2.290408 3.87499,-2.616266 0.006,-2.033168 9.51303,2.46901 12.65114,5.991002 1.01526,1.139457 2.52197,2.279488 3.34824,2.533403 2.15612,0.662577 12.44683,11.55051 14.06456,14.880798 1.78277,3.670035 1.7177,5.032938 -0.44543,9.330122 -3.58727,7.126313 -7.65885,12.339913 -10.11913,12.957405 -0.91233,0.228981 -1.93434,0.908705 -2.27112,1.510498 -0.54403,0.972137 -0.6847,0.964843 -1.26125,-0.06539 z"
       id="path853"
       transform="scale(0.26458333)" />
    <path
       style="fill:#ff0000;stroke-width:0.714286"
       d=""
       id="path857"
       transform="scale(0.26458333)" />
    <path
       style="fill:#ff8080;stroke-width:0.714286"
       d="m 206.32115,58.582429 c -3.33928,-2.943949 -8.22733,-7.251327 -10.86232,-9.571949 -3.73185,-3.28662 -6.35522,-4.846925 -11.86757,-7.058486 -3.89217,-1.561544 -7.70948,-2.839172 -8.48291,-2.839172 -2.20717,0 -2.26469,-0.51604 -0.4558,-4.08906 2.14424,-4.23542 3.89476,-6.088111 8.41311,-8.904172 1.98695,-1.238363 3.9355,-2.632142 4.33012,-3.097287 1.24981,-1.473171 8.8089,-6.052338 9.99094,-6.052338 1.84308,0 6.42069,2.611343 9.98434,5.695663 1.82748,1.581672 3.61361,2.875766 3.96919,2.875766 1.08256,0 10.79844,10.148121 12.9563,13.532701 2.65328,4.161636 2.55409,6.456797 -0.5208,12.05087 -3.45803,6.291116 -5.84433,9.287859 -8.46435,10.629628 -1.21249,0.620944 -2.36525,1.365573 -2.56168,1.65473 -0.19643,0.289157 -3.08928,-1.882945 -6.42857,-4.826894 z"
       id="path859"
       transform="scale(0.26458333)" />
    <path
       style="fill:#ff8080;stroke-width:0.714286"
       d="m 83.082078,212.42276 c -3.15649,-1.68786 -12.839882,-7.17562 -21.518649,-12.19502 l -15.779577,-9.1262 5.804364,-5.44482 c 10.518908,-9.86733 14.301403,-13.97574 20.804363,-22.59694 3.535715,-4.68742 7.4037,-9.66271 8.595524,-11.0562 1.191823,-1.39349 2.798966,-3.76329 3.571429,-5.26624 3.809294,-7.41154 13.273888,-18.51957 28.710628,-33.69595 8.79113,-8.64285 16.76598,-16.288447 17.72188,-16.990203 0.9559,-0.701757 3.58846,-3.594614 5.85014,-6.428572 2.26167,-2.833957 6.56776,-8.084781 9.56909,-11.668497 3.00132,-3.583717 6.36667,-8.083717 7.47857,-10.000001 2.62748,-4.52831 6.72224,-10.271031 7.31975,-10.265626 0.41023,0.0037 33.35867,17.646614 36.80259,19.706684 1.26121,0.754425 1.25681,0.881918 -0.12315,3.571429 -0.78707,1.533992 -4.59576,7.360281 -8.46375,12.947311 -6.38091,9.216765 -9.82,14.432605 -12.14085,18.413195 -6.94997,11.92019 -9.47985,15.90555 -11.69685,18.42626 -1.45231,1.65127 -4.44105,5.76569 -6.64164,9.14315 -2.20058,3.37746 -4.54911,6.59175 -5.21895,7.14285 -0.66984,0.55112 -2.8926,3.25202 -4.93945,6.00202 -4.64606,6.24208 -12.11217,13.42762 -18.18067,17.49747 -5.70491,3.82601 -23.76477,18.18593 -27.04304,21.50272 -3.909451,3.95539 -9.386909,12.03855 -12.156276,17.93919 l -2.586403,5.51081 z"
       id="path861"
       transform="scale(0.26458333)" />
    <path
       style="fill:#ffff00;stroke-width:0.714286"
       d="M 85.964008,213.63762 C 84.785437,213.01487 75.410131,207.70291 65.129994,201.83327 L 46.438838,191.16119 56.637619,181.02987 c 11.730217,-11.65264 29.574838,-33.93074 28.531072,-35.61959 -0.198232,-0.32074 -0.06274,-0.58317 0.301101,-0.58317 0.363837,0 1.512367,-1.28572 2.552289,-2.85714 1.039922,-1.57143 1.750218,-2.85715 1.578436,-2.85715 -0.171783,0 0.54687,-0.90244 1.597007,-2.00543 1.050138,-1.103 5.927198,-6.4374 10.837916,-11.85425 4.91071,-5.41685 10.375,-11.135 12.14285,-12.70701 15.14747,-13.469337 31.62423,-32.039615 41.54724,-46.826165 2.70231,-4.026785 5.24331,-7.321428 5.64667,-7.321428 0.70319,0 14.30092,7.130953 29.77038,15.61225 4.02679,2.207728 7.32143,4.367578 7.32143,4.799666 0,0.432087 -2.95634,5.25724 -6.56966,10.722562 -3.61331,5.465323 -6.50616,10.178022 -6.42857,10.472665 0.0776,0.29464 -0.15574,0.53571 -0.51854,0.53571 -0.7447,0 -7.68635,10.68066 -7.31508,11.25523 0.13177,0.20392 -0.0611,0.56742 -0.42859,0.80777 -0.3675,0.24035 -2.5118,3.49058 -4.76511,7.22272 -2.25332,3.73214 -5.45137,8.55357 -7.10679,10.71428 -1.65542,2.16072 -4.58042,6.17858 -6.5,8.92858 -1.91959,2.75 -4.91593,6.6875 -6.65853,8.75 -1.74261,2.0625 -2.9966,3.75 -2.78665,3.75 1.43695,0 -13.42197,14.07492 -20.16291,19.09903 -11.78918,8.78665 -22.18814,17.27949 -22.18814,18.12108 0,0.39674 -0.29395,0.53967 -0.65322,0.31763 -0.81068,-0.50103 -8.004887,7.45843 -7.49177,8.28867 0.204684,0.33119 0.05459,0.60216 -0.333544,0.60216 -0.901699,0 -6.75417,9.40731 -8.331956,13.39285 -1.351646,3.41431 -1.319618,3.40043 -4.260942,1.84623 z"
       id="path863"
       transform="scale(0.26458333)" />
    <path
       style="fill:#ffff00;stroke-width:0.714286"
       d="m 23.769321,246.5517 c 0.285524,-1.14496 0.932801,-3.04602 1.438393,-4.22459 0.505591,-1.17857 1.204019,-2.8502 1.552061,-3.71473 0.61971,-1.53934 0.717559,-1.50819 4.728819,1.50571 l 4.096015,3.07757 -5.167443,2.30936 c -2.842094,1.27015 -5.61734,2.49365 -6.167212,2.71889 -0.784541,0.32136 -0.888011,-0.0386 -0.480633,-1.67221 z"
       id="path865"
       transform="scale(0.26458333)" />
    <path
       style="fill:#4d4d4d;stroke-width:0.714286"
       d="m 23.464008,247.80154 c 0,-0.41242 0.839454,-3.01457 1.865454,-5.78257 l 1.865454,-5.03272 2.241689,1.55449 c 1.232929,0.85497 3.108324,2.26243 4.167545,3.12769 l 1.925856,1.57321 -5.140142,2.30545 c -6.938245,3.11193 -6.925856,3.1079 -6.925856,2.25445 z"
       id="path867"
       transform="scale(0.26458333)" />
    <path
       style="fill:none;stroke:#000000;stroke-width:0.264583px;stroke-linecap:butt;stroke-linejoin:miter;stroke-opacity:1"
       d="m 12.286942,50.578064 c 0.848292,0.300736 1.645357,0.872051 2.544875,0.902211 0.297012,0.0099 0.234369,-0.547984 0.385329,-0.803966 0.702861,-1.191834 0.151192,0.01744 1.017663,-1.188397 0.225799,-0.314238 0.323024,-0.714526 0.574133,-1.00893 0.361062,-0.423318 0.849785,-0.322255 1.18508,-0.781405 0.07572,-0.103695 -0.05699,-0.270139 0,-0.385204 0.239973,-0.484534 1.010536,-1.456264 1.322916,-1.902164 0.0084,-0.01201 0.792413,-0.747606 0.800114,-0.762344 0.05893,-0.112773 -0.05668,-0.267808 0,-0.38173 0.230396,-0.46306 0.817802,-0.632108 1.141178,-0.955484 0.09961,-0.0996 0.08938,-0.278371 0.188989,-0.377976 0.562654,-0.562652 1.590274,-1.17738 2.296371,-1.544669 0.05698,-0.02964 0.128445,0 0.192668,0 0.197587,-0.127297 0.424219,-0.218062 0.592762,-0.381887 0.101009,-0.09818 0.063,-0.314981 0.188988,-0.377975 0.169036,-0.08452 0.391493,0.07019 0.566964,0 0.332391,-0.132956 0.45549,-0.572453 0.76288,-0.755952 0.172193,-0.102793 0.409858,-0.07158 0.570117,-0.192138 0.113888,-0.08567 0.07873,-0.296066 0.19267,-0.381661 0.406953,-0.30571 1.006634,-0.470519 1.322917,-0.944941 0.261307,-0.391964 0.501729,-0.764389 0.755951,-1.159399 0.191013,-0.296796 0.627227,-0.466789 0.784289,-0.780912 0.54693,-1.093862 1.006819,-2.109986 1.707628,-3.044399 0.378386,-0.504516 0.527606,-1.64187 0.941954,-2.056157 0.100021,-0.100007 0.278974,-0.09182 0.377976,-0.192836 0.04499,-0.04591 -0.03591,-0.139523 0,-0.192834 0.207071,-0.307401 0.561102,-0.492664 0.78273,-0.789739 0.755954,-1.013293 1.378119,-2.157701 2.29122,-3.067359 0.959467,-0.955848 2.288527,-2.082156 3.113299,-2.907423 0.03844,-0.03846 0,-0.108747 0,-0.163121 0,-0.06089 -0.04306,-0.139617 0,-0.182673 0.04306,-0.04306 0.121785,0 0.182679,0 0.06413,-0.190118 0.08897,-0.398415 0.192379,-0.570355 0.346088,-0.575441 1.100756,-1.113819 1.545876,-1.545875 0.263249,-0.255526 0.224387,-0.65973 0.399153,-0.952006 0.34953,-0.584551 1.035687,-1.127848 1.336667,-1.735197 0.0118,-0.02381 0.369572,-1.091592 0.373478,-1.095085 0.07584,-0.06788 0.246509,0.08306 0.305339,0 0.06733,-0.09505 -0.04183,-0.240737 0,-0.349451 0.08948,-0.232568 0.493401,-0.661114 0.659741,-0.819336 0.04564,-0.04342 0.125992,0 0.188987,0 0.125846,-0.0609 0.278437,-0.08408 0.377539,-0.18269 0.03417,-0.034 -0.03147,-0.329707 0,-0.370767 0.06547,-0.08542 0.246214,0.07553 0.322885,0 0.650319,-0.640672 -1.481164,-1.071426 -2.264225,-1.540667"
       id="path871" />
    <path
       style="fill:none;stroke:#000000;stroke-width:0.264583px;stroke-linecap:butt;stroke-linejoin:miter;stroke-opacity:1"
       d="m 17.597612,53.871015 c 0.608128,-0.924586 1.788619,-1.043924 2.564127,-1.72077 0.163363,-0.142579 1.448618,-2.148353 1.585958,-2.31207 0.307978,-0.367125 0.725862,-0.632142 1.032145,-1.000683 0.303785,-0.365535 0.46944,-0.835475 0.787414,-1.188736 0.276206,-0.306861 0.702325,-0.454747 0.972722,-0.766738 0.206363,-0.238107 0.282667,-0.563224 0.424001,-0.844833 0.282894,-0.302186 0.551381,-0.61853 0.848681,-0.906553 0.620475,-0.601115 1.424969,-1.004821 1.99621,-1.652902 0.195074,-0.221316 0.232066,-0.547346 0.402089,-0.78844 0.37868,-0.536961 0.919787,-0.961668 1.34691,-1.391309 0.404894,-0.407281 0.824486,-1.237223 1.145026,-1.716574 0.03566,-0.05333 0,-0.128307 0,-0.192461 0.06299,-0.128243 0.103984,-0.269885 0.188987,-0.384728 0.296913,-0.401142 0.64942,-0.745238 0.94865,-1.144214 0.301614,-0.402154 0.04822,-0.452551 0.570177,-0.759158 0.17961,-0.105506 0.415274,-0.08619 0.594675,-0.192056 0.175652,-0.103651 0.262538,-0.327957 0.444079,-0.42091 0.112147,-0.05742 0.272937,0.06958 0.377976,0 0.190495,-0.126182 0.194948,-0.440547 0.385289,-0.566965 0.488693,-0.324567 1.37323,-0.507521 1.736421,-0.955604 0.188092,-0.232055 0.223824,-0.564993 0.415845,-0.79381 0.147032,-0.175205 0.408967,-0.219393 0.570402,-0.381424 0.355137,-0.356454 0.658215,-0.761444 0.97545,-1.152017 0.643954,-0.792818 0.92016,-1.65047 1.354775,-2.563749 0.114824,-0.241286 0.429107,-0.339375 0.563113,-0.570558 0.129413,-0.405786 0.1671,-0.627001 0.377976,-0.973719 0.497266,-0.817597 1.186939,-1.583616 1.75379,-2.341382 0.107173,-0.143267 0.232178,-0.278815 0.381104,-0.377976 0.05176,-0.03447 0.158898,0.0557 0.186565,0 0.0557,-0.112115 -0.05627,-0.263733 0,-0.375559 0.01209,-0.02404 0.467262,-0.32025 0.528021,-0.377977 0.499094,-0.474173 0.774407,-1.267066 1.355956,-1.703886 0.294579,-0.221269 0.973629,-0.810036 1.137226,-1.137227 0.05635,-0.112691 -0.03984,-0.25845 0,-0.377976 0.129532,-0.388601 0.772764,-0.491874 0.952196,-0.755953 0.105029,-0.154577 -0.168455,-0.479729 0,-0.560649 0.114263,-0.05489 0.266766,0.05641 0.380283,0 0.0016,-8.2e-4 -0.0016,-0.366742 0,-0.371666 0.159523,-0.495497 0.477972,-0.560235 0.753599,-0.972723 0.08322,-0.124537 -0.112347,-0.615622 0,-0.7057 0.09248,-0.07415 0.237064,0 0.355598,0"
       id="path873" />
    <path
       style="fill:none;stroke:#000000;stroke-width:0.264583px;stroke-linecap:butt;stroke-linejoin:miter;stroke-opacity:1"
       d="m 21.982133,56.203521 c -0.317835,-0.524674 -0.813358,-0.976812 -0.953505,-1.574025 -0.07766,-0.330927 1.132663,-2.401302 1.405011,-2.733767 0.461408,-0.563261 0.563224,-1.225508 1.011329,-1.796616 0.246353,-0.313976 0.681415,-0.88355 0.952814,-1.157986 1.005134,-1.016376 -0.313342,0.856398 0.755952,-0.566963 0.39499,-0.525782 -0.06085,-0.301699 0.574116,-0.763105 0.120156,-0.08731 0.295589,-0.08696 0.403526,-0.188987 0.07602,-0.07186 0.316931,-0.726721 0.377977,-0.75705 0.112122,-0.05571 0.263755,0.05627 0.375594,0 0.01222,-0.0061 0.343506,-0.7146 0.38064,-0.751385 0.134268,-0.132995 0.396807,0.08224 0.566965,0 0.05483,-0.0265 0,-0.121785 0,-0.182676 0.123886,-0.06421 0.236432,-0.158215 0.371661,-0.192627 1.569675,-0.399465 3.682454,-1.005221 4.780229,-2.102996 0.468739,-0.05281 0.07971,-0.384487 0.188989,-0.541263 0.308224,-0.442198 0.904992,-0.863994 1.144599,-1.342999 0.08984,-0.179607 0.08763,-0.399706 0.192807,-0.570783 0.333348,-0.542226 0.946647,-0.955659 1.19054,-1.58071 0.04888,-0.125265 -0.05816,-0.282155 0,-0.403389 0.345392,-0.719977 0.324422,-0.149702 0.763082,-0.58836 0.416444,-0.416443 0.397597,-1.23159 0.762712,-1.717497 0.207621,-0.276313 0.570455,-0.476023 0.763138,-0.766803 0.507468,-0.765815 0.956955,-1.551746 1.536025,-2.288164 1.34919,-1.715802 3.034948,-3.829407 4.803291,-5.154327 0.412223,-0.308856 0.972727,-0.586451 1.333447,-0.94494 0.351443,-0.349269 0.350213,-0.839367 0.773853,-1.190662 0.182076,-0.150983 0.445418,-0.202811 0.59585,-0.385341 0.220736,-0.267838 0.177929,-0.687811 0.381793,-0.968703 0.684739,-0.943457 0.119888,0.08307 0.789001,-0.800558 0.238329,-0.314739 0.289811,-0.856779 0.567931,-1.134909 0.379457,-0.379468 0.0016,0.568419 0.373478,-0.184489 0.425267,-0.860903 -0.41112,0.464697 0,-0.37169 0.652301,-1.327047 -0.29377,0.964984 0.371689,-0.377976 0.08364,-0.168786 -0.06007,-0.386577 0,-0.565113 0.199414,-0.592674 0.124026,0.06496 0.377978,-0.188988 0.111226,-0.111227 0.108747,-0.775751 0.180798,-0.912251 0.02941,-0.05571 0.142074,0.04204 0.188987,0 0.07369,-0.06603 -0.08093,-0.239916 0,-0.296833 0.222432,-0.156424 0.380124,-0.295891 0.52056,-0.428984 0.634777,-0.601591 1.665335,0.535234 2.492478,0.819291"
       id="path875" />
    <path
       style="fill:#ffccaa;stroke-width:0.714286"
       d="m 32.780057,238.24915 c -3.159541,-2.35703 -5.744621,-4.69073 -5.744621,-5.18601 0,-0.49529 0.599212,-1.66708 1.331582,-2.60399 0.73237,-0.93691 1.864541,-3.54547 2.515936,-5.79679 0.651395,-2.25133 1.795617,-5.14419 2.542715,-6.42858 0.747097,-1.28438 1.704417,-4.2436 2.127377,-6.57604 0.725312,-3.99978 7.412098,-18.61635 8.516605,-18.61635 0.274817,0 10.192573,5.625 22.039456,12.5 l 21.53979,12.5 -2.596259,4.81469 c -3.327027,6.16988 -6.831044,9.82817 -9.413712,9.82817 -1.071331,0 -3.525744,0.51342 -5.454253,1.14092 -1.928509,0.62751 -6.077808,1.41052 -9.220665,1.74003 -7.565182,0.79317 -10.423784,1.40016 -12.123219,2.57424 -0.774913,0.53536 -1.936923,0.97338 -2.582244,0.97338 -0.645321,0 -1.939872,0.59176 -2.876781,1.31502 -3.381504,2.61041 -4.486383,2.38335 -10.601707,-2.17869 z"
       id="path877"
       transform="scale(0.26458333)" />
    <path
       style="fill:#b3b3b3;stroke-width:0.714286"
       d="m 185.9111,68.163447 c -7.88625,-4.388558 -15.16075,-8.638421 -16.16556,-9.44414 -1.0048,-0.805719 -3.11055,-1.88858 -4.67943,-2.406357 -2.24187,-0.739885 -2.77729,-1.22905 -2.50114,-2.285057 0.19325,-0.739003 0.74534,-1.343642 1.22685,-1.343642 0.48152,0 2.06778,-2.540753 3.52504,-5.646118 1.9973,-4.256175 3.07406,-5.75266 4.37391,-6.078903 2.41025,-0.604933 15.18838,3.784084 15.9399,5.475021 0.13096,0.294643 0.70633,0.535714 1.27862,0.535714 0.57228,0 2.2552,1.205357 3.73983,2.678572 3.54027,3.513068 10.37148,9.451463 14.48976,12.596003 3.44717,2.632112 4.84877,4.725425 3.16396,4.725425 -0.9303,0 -5.41026,3.740583 -5.41026,4.517348 0,0.365044 -4.27584,4.823122 -4.51923,4.711848 -0.068,-0.03109 -6.57601,-3.647157 -14.46225,-8.035714 z"
       id="path879"
       transform="scale(0.26458333)" />
    <path
       style="fill:none;stroke:#000000;stroke-width:0.264583px;stroke-linecap:butt;stroke-linejoin:miter;stroke-opacity:1"
       d="m 6.2081854,65.564157 c 0.4872482,0.464335 0.8917892,1.034999 1.4617448,1.393007 0.3344564,0.210082 1.3180002,-0.188989 1.7082405,-0.188989 1.3048113,0 6.4152753,-0.268203 7.2242843,0 3.297571,1.093218 6.962236,0.948528 10.520913,0.948528 1.922728,0 3.845457,0 5.768184,0 0.846323,0 1.847546,0.164659 2.667807,0 1.749536,-0.351197 3.581567,-0.600093 5.355445,-0.958574 0.384852,-0.07778 6.924833,0.07999 7.004383,0 0.04232,-0.04256 -0.05414,-0.154149 0,-0.180049 0.0019,-7.94e-4 0.640517,0.05145 0.686141,0 0.273013,-0.307838 -0.135085,0.06031 0.501851,-0.156414 1.564257,-0.532257 2.586734,-0.131585 4.049448,-0.377976 0.494541,-0.0833 1.015841,-0.279027 1.530395,-0.381159 0.855427,-0.169791 2.647744,-0.192137 3.406643,0.187778 0.607192,0.303969 2.014027,0 2.757088,0"
       id="path881" />
  </g>
</svg>
